<?xml version="1.0" standalone="no"?><!DOCTYPE svg PUBLIC "-//W3C//DTD SVG 1.1//EN" "http://www.w3.org/Graphics/SVG/1.1/DTD/svg11.dtd"><svg t="1556333849810" class="icon" style="" viewBox="0 0 1024 1024" version="1.1" xmlns="http://www.w3.org/2000/svg" p-id="6241" xmlns:xlink="http://www.w3.org/1999/xlink" width="200" height="200"><defs><style type="text/css"></style></defs><path d="M964.110629 986.346057c-24.429714-175.747657-148.831086-319.341714-314.046172-371.594971 109.216914-51.755886 184.788114-163.050057 184.788114-291.869257C834.852571 144.559543 690.351543 0 511.941486 0 333.589943 0 189.059657 144.559543 189.059657 322.881829c0 128.965486 75.658971 240.288914 184.992914 291.869257C209.7152 667.004343 85.723429 809.749943 60.708571 984.385829A28.730514 28.730514 0 0 0 87.303314 1024a28.789029 28.789029 0 0 0 28.759772-28.701257v-1.199543c27.092114-194.677029 194.1504-344.415086 396.200228-344.415086 201.347657 0 367.850057 148.6848 395.936915 342.308572a22.9376 22.9376 0 0 0-0.263315 3.306057 28.789029 28.789029 0 1 0 56.173715-8.952686zM511.941486 589.502171a266.620343 266.620343 0 0 1-266.6496-266.620342 266.620343 266.620343 0 0 1 266.6496-266.737372 266.6496 266.6496 0 0 1 266.766628 266.737372c0 147.221943-119.339886 266.620343-266.766628 266.620342z" fill="" p-id="6242"></path></svg>