<?xml version="1.0" standalone="no"?><!DOCTYPE svg PUBLIC "-//W3C//DTD SVG 1.1//EN" "http://www.w3.org/Graphics/SVG/1.1/DTD/svg11.dtd"><svg t="1556269071123" class="icon" style="" viewBox="0 0 1024 1024" version="1.1" xmlns="http://www.w3.org/2000/svg" p-id="3301" xmlns:xlink="http://www.w3.org/1999/xlink" width="200" height="200"><defs><style type="text/css"></style></defs><path d="M882.6 837.4L750.5 705.2c22.2-26.6 40.3-56.2 53.8-88.2 18.4-43.4 27.7-89.5 27.7-137s-9.3-93.6-27.7-137c-17.7-41.9-43.1-79.6-75.4-111.9-32.3-32.3-70-57.7-111.9-75.4-43.4-18.4-89.5-27.7-137-27.7s-93.6 9.3-137 27.7c-41.9 17.7-79.6 43.1-111.9 75.4-32.3 32.3-57.7 70-75.4 111.9-18.4 43.4-27.7 89.5-27.7 137s9.3 93.6 27.7 137c17.7 41.9 43.1 79.6 75.4 111.9 32.3 32.3 70 57.7 111.9 75.4 43.4 18.4 89.5 27.7 137 27.7s93.6-9.3 137-27.7c32.1-13.6 61.6-31.6 88.2-53.8l132.1 132.1c6.2 6.2 14.4 9.4 22.6 9.4s16.4-3.1 22.6-9.4c12.6-12.5 12.6-32.7 0.1-45.2zM480 768c-158.8 0-288-129.2-288-288s129.2-288 288-288 288 129.2 288 288-129.2 288-288 288z" p-id="3302"></path></svg>