<?xml version="1.0" encoding="utf-8"?>
<!-- Generator: Adobe Illustrator 22.0.1, SVG Export Plug-In . SVG Version: 6.00 Build 0)  -->
<svg version="1.1" id="图层_1" xmlns="http://www.w3.org/2000/svg" xmlns:xlink="http://www.w3.org/1999/xlink" x="0px" y="0px"
	 viewBox="0 0 200 200" style="enable-background:new 0 0 200 200;" xml:space="preserve">
<g>
	<path d="M72.5,120c-1,1.1-1.5,2.6-1.4,4.1c0.2,2.9,2.7,5.2,5.6,5.2c0.1,0,0.3,0,0.4,0l46.3-3.4c1.9-4.4,4.4-8.3,7.5-11.8l-54.6,4
		C74.8,118.1,73.5,118.8,72.5,120z"/>
	<path d="M64.9,46.5h102.3c1.2,0,2.2,0.5,3,1.4c1.2,1.4,1.8,3.6,1.6,5.7l-8,45.9c3.8,0.1,7.6,0.6,11.1,1.6l8-45.9
		c0.7-5.6-0.9-11-4.3-14.8h0c-3-3.3-7-5.2-11.5-5.2H64.9c-3.1,0-5.6,2.5-5.6,5.6S61.8,46.5,64.9,46.5z"/>
	<path d="M121.2,152.9c-0.8-3.3-1.2-6.7-1.2-10.2c0-0.4,0-0.7,0-1.1H69.3c-2.7,0-5.3-2.4-5.6-5.3L53.7,65.5L48,32.7
		c-1-8.5-8.5-15.1-17-15.1h-7.5c-3.1,0-5.6,2.5-5.6,5.6c0,3.1,2.5,5.6,5.6,5.6H31c2.8,0,5.5,2.5,5.8,5.5l5.7,33l10,70.6
		c1,8.5,8.4,15.1,16.8,15.1H121.2z"/>
	<path d="M70.9,159.4c-6.4,0-11.5,5.2-11.5,11.5c0,6.4,5.2,11.5,11.5,11.5l0,0c6.4,0,11.5-5.2,11.5-11.5
		C82.4,164.5,77.2,159.4,70.9,159.4z"/>
</g>
<path d="M130.2,142.1L130.2,142.1c0-2,1.6-3.6,3.6-3.6h59.6c2,0,3.6,1.6,3.6,3.6l0,0c0,2-1.6,3.6-3.6,3.6h-59.6
	C131.8,145.7,130.2,144.1,130.2,142.1z"/>
<path d="M163.6,175.5L163.6,175.5c-2,0-3.6-1.6-3.6-3.6v-59.6c0-2,1.6-3.6,3.6-3.6l0,0c2,0,3.6,1.6,3.6,3.6v59.6
	C167.2,173.9,165.6,175.5,163.6,175.5z"/>
</svg>
